Aug 02 03:50:03 raspberrypi python3[220142]: 2025-08-02 03:50:03,893 - INFO - Camera closed successfully.
Aug 02 03:50:03 raspberrypi python3[220142]: 2025-08-02 03:50:03,893 [INFO] ✅ left camera hardware released
Aug 02 03:50:03 raspberrypi python3[220142]: 2025-08-02 03:50:03,893 - INFO - ✅ left camera hardware released
Aug 02 03:50:04 raspberrypi python3[220142]: 2025-08-02 03:50:04,518 [INFO] ✅ left recording completed: 44966210 bytes
Aug 02 03:50:04 raspberrypi python3[220142]: 2025-08-02 03:50:04,518 - INFO - ✅ left recording completed: 44966210 bytes
Aug 02 03:50:04 raspberrypi python3[220142]: 2025-08-02 03:50:04,745 [INFO] ✅ left MP4 file is valid
Aug 02 03:50:04 raspberrypi python3[220142]: 2025-08-02 03:50:04,745 - INFO - ✅ left MP4 file is valid
Aug 02 03:50:04 raspberrypi python3[220142]: 2025-08-02 03:50:04,745 [INFO] ✅ left MP4 file validated successfully
Aug 02 03:50:04 raspberrypi python3[220142]: 2025-08-02 03:50:04,745 - INFO - ✅ left MP4 file validated successfully
Aug 02 03:50:04 raspberrypi python3[220142]: 2025-08-02 03:50:04,745 [INFO] ✅ left camera thread stopped gracefully
Aug 02 03:50:04 raspberrypi python3[220142]: 2025-08-02 03:50:04,745 - INFO - ✅ left camera thread stopped gracefully
Aug 02 03:50:04 raspberrypi python3[220142]: 2025-08-02 03:50:04,746 [INFO] ✅ left recording completed: 44966210 bytes
Aug 02 03:50:04 raspberrypi python3[220142]: 2025-08-02 03:50:04,746 - INFO - ✅ left recording completed: 44966210 bytes
Aug 02 03:50:04 raspberrypi python3[220142]: 2025-08-02 03:50:04,975 [INFO] ✅ left MP4 file is valid
Aug 02 03:50:04 raspberrypi python3[220142]: 2025-08-02 03:50:04,975 - INFO - ✅ left MP4 file is valid
Aug 02 03:50:04 raspberrypi python3[220142]: 2025-08-02 03:50:04,975 [INFO] ✅ left MP4 file validated successfully
Aug 02 03:50:04 raspberrypi python3[220142]: 2025-08-02 03:50:04,975 - INFO - ✅ left MP4 file validated successfully
Aug 02 03:50:04 raspberrypi python3[220142]: 2025-08-02 03:50:04,975 - INFO - 🛑 Stopping camera 1 recording...
Aug 02 03:50:04 raspberrypi python3[220142]: 2025-08-02 03:50:04,979 - INFO - Camera stopped
Aug 02 03:50:05 raspberrypi python3[220142]: 2025-08-02 03:50:05,184 - INFO - Camera closed successfully.
Aug 02 03:50:05 raspberrypi python3[220142]: 2025-08-02 03:50:05,184 [INFO] ✅ right camera hardware released
Aug 02 03:50:05 raspberrypi python3[220142]: 2025-08-02 03:50:05,184 - INFO - ✅ right camera hardware released
Aug 02 03:50:05 raspberrypi python3[220142]: 2025-08-02 03:50:05,521 [INFO] ✅ right recording completed: 45901862 bytes
Aug 02 03:50:05 raspberrypi python3[220142]: 2025-08-02 03:50:05,521 - INFO - ✅ right recording completed: 45901862 bytes
Aug 02 03:50:05 raspberrypi python3[220142]: 2025-08-02 03:50:05,716 [INFO] ✅ right MP4 file is valid
Aug 02 03:50:05 raspberrypi python3[220142]: 2025-08-02 03:50:05,716 - INFO - ✅ right MP4 file is valid
Aug 02 03:50:05 raspberrypi python3[220142]: 2025-08-02 03:50:05,717 [INFO] ✅ right MP4 file validated successfully
Aug 02 03:50:05 raspberrypi python3[220142]: 2025-08-02 03:50:05,717 - INFO - ✅ right MP4 file validated successfully
Aug 02 03:50:05 raspberrypi python3[220142]: 2025-08-02 03:50:05,717 [INFO] ✅ right camera thread stopped gracefully
Aug 02 03:50:05 raspberrypi python3[220142]: 2025-08-02 03:50:05,717 - INFO - ✅ right camera thread stopped gracefully
Aug 02 03:50:05 raspberrypi python3[220142]: 2025-08-02 03:50:05,717 [INFO] ✅ right recording completed: 45901862 bytes
Aug 02 03:50:05 raspberrypi python3[220142]: 2025-08-02 03:50:05,717 - INFO - ✅ right recording completed: 45901862 bytes
Aug 02 03:50:05 raspberrypi python3[220142]: 2025-08-02 03:50:05,915 [INFO] ✅ right MP4 file is valid
Aug 02 03:50:05 raspberrypi python3[220142]: 2025-08-02 03:50:05,915 - INFO - ✅ right MP4 file is valid
Aug 02 03:50:05 raspberrypi python3[220142]: 2025-08-02 03:50:05,916 [INFO] ✅ right MP4 file validated successfully
Aug 02 03:50:05 raspberrypi python3[220142]: 2025-08-02 03:50:05,916 - INFO - ✅ right MP4 file validated successfully
Aug 02 03:50:08 raspberrypi python3[220142]: 2025-08-02 03:50:08,929 - INFO - ✅ Forced cleanup of any remaining camera processes
Aug 02 03:50:08 raspberrypi python3[220142]: 2025-08-02 03:50:08,929 - INFO - 🔍 Checking camera recording files...
Aug 02 03:50:08 raspberrypi python3[220142]: 2025-08-02 03:50:08,930 - INFO - 📊 Recording mode: Dual camera
Aug 02 03:50:08 raspberrypi python3[220142]: 2025-08-02 03:50:08,930 - INFO - ✅ left recording: 034900-035000_65aa2e2a-e463-424d-b88f-0724bb0bea3a_d217e751-dfa5-5276-abbb-da5ad6c2626a_left.mp4 (44966210 bytes)
Aug 02 03:50:08 raspberrypi python3[220142]: 2025-08-02 03:50:08,930 - INFO - ✅ right recording: 034900-035000_65aa2e2a-e463-424d-b88f-0724bb0bea3a_d217e751-dfa5-5276-abbb-da5ad6c2626a_right.mp4 (45901862 bytes)
Aug 02 03:50:08 raspberrypi python3[220142]: 2025-08-02 03:50:08,930 - INFO - ✅ Both camera recordings completed
Aug 02 03:50:08 raspberrypi python3[220142]: 2025-08-02 03:50:08,930 - INFO - 🎬 Using enhanced merge for 034900-035000_65aa2e2a-e463-424d-b88f-0724bb0bea3a_d217e751-dfa5-5276-abbb-da5ad6c2626a_left.mp4 and 034900-035000_65aa2e2a-e463-424d-b88f-0724bb0bea3a_d217e751-dfa5-5276-abbb-da5ad6c2626a_right.mp4
Aug 02 03:50:09 raspberrypi python3[220142]: 2025-08-02 03:50:09,470 - INFO - 🎬 Starting merge attempt 1/3
Aug 02 03:50:09 raspberrypi python3[220142]: 2025-08-02 03:50:09,470 - INFO - 📹 Input 1: 034900-035000_65aa2e2a-e463-424d-b88f-0724bb0bea3a_d217e751-dfa5-5276-abbb-da5ad6c2626a_left.mp4 (44,966,210 bytes)
Aug 02 03:50:09 raspberrypi python3[220142]: 2025-08-02 03:50:09,470 - INFO - 📹 Input 2: 034900-035000_65aa2e2a-e463-424d-b88f-0724bb0bea3a_d217e751-dfa5-5276-abbb-da5ad6c2626a_right.mp4 (45,901,862 bytes)
Aug 02 03:50:09 raspberrypi python3[220142]: 2025-08-02 03:50:09,470 - INFO - 🎯 Output: /opt/ezrec-backend/recordings/2025-08-02/034900-035000_65aa2e2a-e463-424d-b88f-0724bb0bea3a_d217e751-dfa5-5276-abbb-da5ad6c2626a_merged.mp4
Aug 02 03:50:09 raspberrypi python3[220142]: 2025-08-02 03:50:09,470 - INFO - 🔧 Method: side_by_side
Aug 02 03:50:09 raspberrypi python3[220142]: 2025-08-02 03:50:09,877 - INFO - 🎨 Using feathered blend merge:
Aug 02 03:50:09 raspberrypi python3[220142]: 2025-08-02 03:50:09,878 - INFO -    - Feather width: 100px
Aug 02 03:50:09 raspberrypi python3[220142]: 2025-08-02 03:50:09,878 - INFO -    - Edge trim: 5px
Aug 02 03:50:09 raspberrypi python3[220142]: 2025-08-02 03:50:09,878 - INFO -    - Method: side_by_side
Aug 02 03:50:09 raspberrypi python3[220142]: 2025-08-02 03:50:09,878 - INFO -    - Output dimensions: 1920x1080
Aug 02 03:50:10 raspberrypi python3[220142]: 2025-08-02 03:50:10,152 - ERROR - ❌ FFmpeg failed on attempt 1
Aug 02 03:50:10 raspberrypi python3[220142]: ERROR: ❌ FFmpeg failed on attempt 1
Aug 02 03:50:10 raspberrypi python3[220142]: 2025-08-02 03:50:10,153 - ERROR - 🔧 FFmpeg stderr:
Aug 02 03:50:10 raspberrypi python3[220142]: ffmpeg version 5.1.6-0+deb12u1+rpt3 Copyright (c) 2000-2024 the FFmpeg developers
Aug 02 03:50:10 raspberrypi python3[220142]:   built with gcc 12 (Debian 12.2.0-14)
Aug 02 03:50:10 raspberrypi python3[220142]:   configuration: --prefix=/usr --extra-version=0+deb12u1+rpt3 --toolchain=hardened --incdir=/usr/include/aarch64-linux-gnu --enable-gpl --disable-stripping --disable-mmal --enable-gnutls --enable-ladspa --enable-libaom --enable-libass --enable-libbluray --enable-libbs2b --enable-libcaca --enable-libcdio --enable-libcodec2 --enable-libdav1d --enable-libflite --enable-libfontconfig --enable-libfreetype --enable-libfribidi --enable-libglslang --enable-libgme --enable-libgsm --enable-libjack --enable-libmp3lame --enable-libmysofa --enable-libopenjpeg --enable-libopenmpt --enable-libopus --enable-libpulse --enable-librabbitmq --enable-librist --enable-librubberband --enable-libshine --enable-libsnappy --enable-libsoxr --enable-libspeex --enable-libsrt --enable-libssh --enable-libsvtav1 --enable-libtheora --enable-libtwolame --enable-libvidstab --enable-libvorbis --enable-libvpx --enable-libwebp --enable-libx265 --enable-libxml2 --enable-libxvid --enable-libzimg --enable-libzmq --enable-libzvbi --enable-lv2 --enable-omx --enable-openal --enable-opencl --enable-opengl --enable-sand --enable-sdl2 --disable-sndio --enable-libjxl --enable-neon --enable-v4l2-request --enable-libudev --enable-epoxy --libdir=/usr/lib/aarch64-linux-gnu --arch=arm64 --enable-pocketsphinx --enable-librsvg --enable-libdc1394 --enable-libdrm --enable-vout-drm --enable-libiec61883 --enable-chromaprint --enable-frei0r --enable-libx264 --enable-libplacebo --enable-librav1e --enable-shared
Aug 02 03:50:10 raspberrypi python3[220142]:   WARNING: library configuration mismatch
Aug 02 03:50:10 raspberrypi python3[220142]:   avcodec     configuration: --prefix=/usr --extra-version=0+deb12u1+rpt3 --toolchain=hardened --incdir=/usr/include/aarch64-linux-gnu --enable-gpl --disable-stripping --disable-mmal --enable-gnutls --enable-ladspa --enable-libaom --enable-libass --enable-libbluray --enable-libbs2b --enable-libcaca --enable-libcdio --enable-libcodec2 --enable-libdav1d --enable-libflite --enable-libfontconfig --enable-libfreetype --enable-libfribidi --enable-libglslang --enable-libgme --enable-libgsm --enable-libjack --enable-libmp3lame --enable-libmysofa --enable-libopenjpeg --enable-libopenmpt --enable-libopus --enable-libpulse --enable-librabbitmq --enable-librist --enable-librubberband --enable-libshine --enable-libsnappy --enable-libsoxr --enable-libspeex --enable-libsrt --enable-libssh --enable-libsvtav1 --enable-libtheora --enable-libtwolame --enable-libvidstab --enable-libvorbis --enable-libvpx --enable-libwebp --enable-libx265 --enable-libxml2 --enable-libxvid --enable-libzimg --enable-libzmq --enable-libzvbi --enable-lv2 --enable-omx --enable-openal --enable-opencl --enable-opengl --enable-sand --enable-sdl2 --disable-sndio --enable-libjxl --enable-neon --enable-v4l2-request --enable-libudev --enable-epoxy --libdir=/usr/lib/aarch64-linux-gnu --arch=arm64 --enable-pocketsphinx --enable-librsvg --enable-libdc1394 --enable-libdrm --enable-vout-drm --enable-libiec61883 --enable-chromaprint --enable-frei0r --enable-libx264 --enable-libplacebo --enable-librav1e --enable-shared --enable-version3 --disable-doc --disable-programs --enable-libaribb24 --enable-libopencore_amrnb --enable-libopencore_amrwb --enable-libtesseract --enable-libvo_amrwbenc --enable-libsmbclient
Aug 02 03:50:10 raspberrypi python3[220142]:   libavutil      57. 28.100 / 57. 28.100
Aug 02 03:50:10 raspberrypi python3[220142]:   libavcodec     59. 37.100 / 59. 37.100
Aug 02 03:50:10 raspberrypi python3[220142]:   libavformat    59. 27.100 / 59. 27.100
Aug 02 03:50:10 raspberrypi python3[220142]:   libavdevice    59.  7.100 / 59.  7.100
Aug 02 03:50:10 raspberrypi python3[220142]:   libavfilter     8. 44.100 /  8. 44.100
Aug 02 03:50:10 raspberrypi python3[220142]:   libswscale      6.  7.100 /  6.  7.100
Aug 02 03:50:10 raspberrypi python3[220142]:   libswresample   4.  7.100 /  4.  7.100
Aug 02 03:50:10 raspberrypi python3[220142]:   libpostproc    56.  6.100 / 56.  6.100
Aug 02 03:50:10 raspberrypi python3[220142]: Input #0, h264, from '/opt/ezrec-backend/recordings/2025-08-02/034900-035000_65aa2e2a-e463-424d-b88f-0724bb0bea3a_d217e751-dfa5-5276-abbb-da5ad6c2626a_left.mp4':
Aug 02 03:50:10 raspberrypi python3[220142]:   Duration: N/A, bitrate: N/A
Aug 02 03:50:10 raspberrypi python3[220142]:   Stream #0:0: Video: h264 (Constrained Baseline), yuv420p(progressive), 1920x1080, 30 fps, 30 tbr, 1200k tbn
Aug 02 03:50:10 raspberrypi python3[220142]: Input #1, h264, from '/opt/ezrec-backend/recordings/2025-08-02/034900-035000_65aa2e2a-e463-424d-b88f-0724bb0bea3a_d217e751-dfa5-5276-abbb-da5ad6c2626a_right.mp4':
Aug 02 03:50:10 raspberrypi python3[220142]:   Duration: N/A, bitrate: N/A
Aug 02 03:50:10 raspberrypi python3[220142]:   Stream #1:0: Video: h264 (Constrained Baseline), yuv420p(progressive), 1920x1080, 30 fps, 30 tbr, 1200k tbn
Aug 02 03:50:10 raspberrypi python3[220142]: Stream mapping:
Aug 02 03:50:10 raspberrypi python3[220142]:   Stream #0:0 (h264) -> crop:default
Aug 02 03:50:10 raspberrypi python3[220142]:   Stream #0:0 (h264) -> crop:default
Aug 02 03:50:10 raspberrypi python3[220142]:   Stream #1:0 (h264) -> crop:default
Aug 02 03:50:10 raspberrypi python3[220142]:   Stream #1:0 (h264) -> crop:default
Aug 02 03:50:10 raspberrypi python3[220142]:   format:default -> Stream #0:0 (libx264)
Aug 02 03:50:10 raspberrypi python3[220142]: Press [q] to stop, [?] for help
Aug 02 03:50:10 raspberrypi python3[220142]: [Parsed_blend_4 @ 0x5555dbfc1270] [Eval @ 0x7fffd6704890] Undefined constant or missing '(' in 'x/w)'
Aug 02 03:50:10 raspberrypi python3[220142]: [Parsed_blend_4 @ 0x5555dbfc1270] Failed to configure output pad on Parsed_blend_4
Aug 02 03:50:10 raspberrypi python3[220142]: Error reinitializing filters!
Aug 02 03:50:10 raspberrypi python3[220142]: Failed to inject frame into filter network: Invalid argument
Aug 02 03:50:10 raspberrypi python3[220142]: Error while processing the decoded data for stream #1:0
Aug 02 03:50:10 raspberrypi python3[220142]: Conversion failed!
Aug 02 03:50:10 raspberrypi python3[220142]: ERROR: 🔧 FFmpeg stderr:
Aug 02 03:50:10 raspberrypi python3[220142]: ffmpeg version 5.1.6-0+deb12u1+rpt3 Copyright (c) 2000-2024 the FFmpeg developers
Aug 02 03:50:10 raspberrypi python3[220142]:   built with gcc 12 (Debian 12.2.0-14)
Aug 02 03:50:10 raspberrypi python3[220142]:   configuration: --prefix=/usr --extra-version=0+deb12u1+rpt3 --toolchain=hardened --incdir=/usr/include/aarch64-linux-gnu --enable-gpl --disable-stripping --disable-mmal --enable-gnutls --enable-ladspa --enable-libaom --enable-libass --enable-libbluray --enable-libbs2b --enable-libcaca --enable-libcdio --enable-libcodec2 --enable-libdav1d --enable-libflite --enable-libfontconfig --enable-libfreetype --enable-libfribidi --enable-libglslang --enable-libgme --enable-libgsm --enable-libjack --enable-libmp3lame --enable-libmysofa --enable-libopenjpeg --enable-libopenmpt --enable-libopus --enable-libpulse --enable-librabbitmq --enable-librist --enable-librubberband --enable-libshine --enable-libsnappy --enable-libsoxr --enable-libspeex --enable-libsrt --enable-libssh --enable-libsvtav1 --enable-libtheora --enable-libtwolame --enable-libvidstab --enable-libvorbis --enable-libvpx --enable-libwebp --enable-libx265 --enable-libxml2 --enable-libxvid --enable-libzimg --enable-libzmq --enable-libzvbi --enable-lv2 --enable-omx --enable-openal --enable-opencl --enable-opengl --enable-sand --enable-sdl2 --disable-sndio --enable-libjxl --enable-neon --enable-v4l2-request --enable-libudev --enable-epoxy --libdir=/usr/lib/aarch64-linux-gnu --arch=arm64 --enable-pocketsphinx --enable-librsvg --enable-libdc1394 --enable-libdrm --enable-vout-drm --enable-libiec61883 --enable-chromaprint --enable-frei0r --enable-libx264 --enable-libplacebo --enable-librav1e --enable-shared
Aug 02 03:50:10 raspberrypi python3[220142]:   WARNING: library configuration mismatch
Aug 02 03:50:10 raspberrypi python3[220142]:   avcodec     configuration: --prefix=/usr --extra-version=0+deb12u1+rpt3 --toolchain=hardened --incdir=/usr/include/aarch64-linux-gnu --enable-gpl --disable-stripping --disable-mmal --enable-gnutls --enable-ladspa --enable-libaom --enable-libass --enable-libbluray --enable-libbs2b --enable-libcaca --enable-libcdio --enable-libcodec2 --enable-libdav1d --enable-libflite --enable-libfontconfig --enable-libfreetype --enable-libfribidi --enable-libglslang --enable-libgme --enable-libgsm --enable-libjack --enable-libmp3lame --enable-libmysofa --enable-libopenjpeg --enable-libopenmpt --enable-libopus --enable-libpulse --enable-librabbitmq --enable-librist --enable-librubberband --enable-libshine --enable-libsnappy --enable-libsoxr --enable-libspeex --enable-libsrt --enable-libssh --enable-libsvtav1 --enable-libtheora --enable-libtwolame --enable-libvidstab --enable-libvorbis --enable-libvpx --enable-libwebp --enable-libx265 --enable-libxml2 --enable-libxvid --enable-libzimg --enable-libzmq --enable-libzvbi --enable-lv2 --enable-omx --enable-openal --enable-opencl --enable-opengl --enable-sand --enable-sdl2 --disable-sndio --enable-libjxl --enable-neon --enable-v4l2-request --enable-libudev --enable-epoxy --libdir=/usr/lib/aarch64-linux-gnu --arch=arm64 --enable-pocketsphinx --enable-librsvg --enable-libdc1394 --enable-libdrm --enable-vout-drm --enable-libiec61883 --enable-chromaprint --enable-frei0r --enable-libx264 --enable-libplacebo --enable-librav1e --enable-shared --enable-version3 --disable-doc --disable-programs --enable-libaribb24 --enable-libopencore_amrnb --enable-libopencore_amrwb --enable-libtesseract --enable-libvo_amrwbenc --enable-libsmbclient
Aug 02 03:50:10 raspberrypi python3[220142]:   libavutil      57. 28.100 / 57. 28.100
Aug 02 03:50:10 raspberrypi python3[220142]:   libavcodec     59. 37.100 / 59. 37.100
Aug 02 03:50:10 raspberrypi python3[220142]:   libavformat    59. 27.100 / 59. 27.100
Aug 02 03:50:10 raspberrypi python3[220142]:   libavdevice    59.  7.100 / 59.  7.100
Aug 02 03:50:10 raspberrypi python3[220142]:   libavfilter     8. 44.100 /  8. 44.100
Aug 02 03:50:10 raspberrypi python3[220142]:   libswscale      6.  7.100 /  6.  7.100
Aug 02 03:50:10 raspberrypi python3[220142]:   libswresample   4.  7.100 /  4.  7.100
Aug 02 03:50:10 raspberrypi python3[220142]:   libpostproc    56.  6.100 / 56.  6.100
Aug 02 03:50:10 raspberrypi python3[220142]: Input #0, h264, from '/opt/ezrec-backend/recordings/2025-08-02/034900-035000_65aa2e2a-e463-424d-b88f-0724bb0bea3a_d217e751-dfa5-5276-abbb-da5ad6c2626a_left.mp4':
Aug 02 03:50:10 raspberrypi python3[220142]:   Duration: N/A, bitrate: N/A
Aug 02 03:50:10 raspberrypi python3[220142]:   Stream #0:0: Video: h264 (Constrained Baseline), yuv420p(progressive), 1920x1080, 30 fps, 30 tbr, 1200k tbn
Aug 02 03:50:10 raspberrypi python3[220142]: Input #1, h264, from '/opt/ezrec-backend/recordings/2025-08-02/034900-035000_65aa2e2a-e463-424d-b88f-0724bb0bea3a_d217e751-dfa5-5276-abbb-da5ad6c2626a_right.mp4':
Aug 02 03:50:10 raspberrypi python3[220142]:   Duration: N/A, bitrate: N/A
Aug 02 03:50:10 raspberrypi python3[220142]:   Stream #1:0: Video: h264 (Constrained Baseline), yuv420p(progressive), 1920x1080, 30 fps, 30 tbr, 1200k tbn
Aug 02 03:50:10 raspberrypi python3[220142]: Stream mapping:
Aug 02 03:50:10 raspberrypi python3[220142]:   Stream #0:0 (h264) -> crop:default
Aug 02 03:50:10 raspberrypi python3[220142]:   Stream #0:0 (h264) -> crop:default
Aug 02 03:50:10 raspberrypi python3[220142]:   Stream #1:0 (h264) -> crop:default
Aug 02 03:50:10 raspberrypi python3[220142]:   Stream #1:0 (h264) -> crop:default
Aug 02 03:50:10 raspberrypi python3[220142]:   format:default -> Stream #0:0 (libx264)
Aug 02 03:50:10 raspberrypi python3[220142]: Press [q] to stop, [?] for help
Aug 02 03:50:10 raspberrypi python3[220142]: [Parsed_blend_4 @ 0x5555dbfc1270] [Eval @ 0x7fffd6704890] Undefined constant or missing '(' in 'x/w)'
Aug 02 03:50:10 raspberrypi python3[220142]: [Parsed_blend_4 @ 0x5555dbfc1270] Failed to configure output pad on Parsed_blend_4
Aug 02 03:50:10 raspberrypi python3[220142]: Error reinitializing filters!
Aug 02 03:50:10 raspberrypi python3[220142]: Failed to inject frame into filter network: Invalid argument
Aug 02 03:50:10 raspberrypi python3[220142]: Error while processing the decoded data for stream #1:0
Aug 02 03:50:10 raspberrypi python3[220142]: Conversion failed!
Aug 02 03:50:10 raspberrypi python3[220142]: 2025-08-02 03:50:10,153 - ERROR - 🔧 FFmpeg stdout:
Aug 02 03:50:10 raspberrypi python3[220142]: ERROR: 🔧 FFmpeg stdout:
Aug 02 03:50:10 raspberrypi python3[220142]: 2025-08-02 03:50:10,153 - INFO - ⏳ Waiting 1s before retry...
Aug 02 03:50:11 raspberrypi python3[220142]: 2025-08-02 03:50:11,153 - INFO - 🎬 Starting merge attempt 2/3
Aug 02 03:50:11 raspberrypi python3[220142]: 2025-08-02 03:50:11,154 - INFO - 📹 Input 1: 034900-035000_65aa2e2a-e463-424d-b88f-0724bb0bea3a_d217e751-dfa5-5276-abbb-da5ad6c2626a_left.mp4 (44,966,210 bytes)
Aug 02 03:50:11 raspberrypi python3[220142]: 2025-08-02 03:50:11,154 - INFO - 📹 Input 2: 034900-035000_65aa2e2a-e463-424d-b88f-0724bb0bea3a_d217e751-dfa5-5276-abbb-da5ad6c2626a_right.mp4 (45,901,862 bytes)
Aug 02 03:50:11 raspberrypi python3[220142]: 2025-08-02 03:50:11,154 - INFO - 🎯 Output: /opt/ezrec-backend/recordings/2025-08-02/034900-035000_65aa2e2a-e463-424d-b88f-0724bb0bea3a_d217e751-dfa5-5276-abbb-da5ad6c2626a_merged.mp4
Aug 02 03:50:11 raspberrypi python3[220142]: 2025-08-02 03:50:11,154 - INFO - 🔧 Method: side_by_side
Aug 02 03:50:11 raspberrypi python3[220142]: 2025-08-02 03:50:11,544 - INFO - 🎨 Using feathered blend merge:
Aug 02 03:50:11 raspberrypi python3[220142]: 2025-08-02 03:50:11,544 - INFO -    - Feather width: 100px
Aug 02 03:50:11 raspberrypi python3[220142]: 2025-08-02 03:50:11,544 - INFO -    - Edge trim: 5px
Aug 02 03:50:11 raspberrypi python3[220142]: 2025-08-02 03:50:11,544 - INFO -    - Method: side_by_side
Aug 02 03:50:11 raspberrypi python3[220142]: 2025-08-02 03:50:11,544 - INFO -    - Output dimensions: 1920x1080
Aug 02 03:50:11 raspberrypi python3[220142]: 2025-08-02 03:50:11,813 - ERROR - ❌ FFmpeg failed on attempt 2
Aug 02 03:50:11 raspberrypi python3[220142]: ERROR: ❌ FFmpeg failed on attempt 2
Aug 02 03:50:11 raspberrypi python3[220142]: 2025-08-02 03:50:11,814 - ERROR - 🔧 FFmpeg stderr:
Aug 02 03:50:11 raspberrypi python3[220142]: ffmpeg version 5.1.6-0+deb12u1+rpt3 Copyright (c) 2000-2024 the FFmpeg developers
Aug 02 03:50:11 raspberrypi python3[220142]:   built with gcc 12 (Debian 12.2.0-14)
Aug 02 03:50:11 raspberrypi python3[220142]:   configuration: --prefix=/usr --extra-version=0+deb12u1+rpt3 --toolchain=hardened --incdir=/usr/include/aarch64-linux-gnu --enable-gpl --disable-stripping --disable-mmal --enable-gnutls --enable-ladspa --enable-libaom --enable-libass --enable-libbluray --enable-libbs2b --enable-libcaca --enable-libcdio --enable-libcodec2 --enable-libdav1d --enable-libflite --enable-libfontconfig --enable-libfreetype --enable-libfribidi --enable-libglslang --enable-libgme --enable-libgsm --enable-libjack --enable-libmp3lame --enable-libmysofa --enable-libopenjpeg --enable-libopenmpt --enable-libopus --enable-libpulse --enable-librabbitmq --enable-librist --enable-librubberband --enable-libshine --enable-libsnappy --enable-libsoxr --enable-libspeex --enable-libsrt --enable-libssh --enable-libsvtav1 --enable-libtheora --enable-libtwolame --enable-libvidstab --enable-libvorbis --enable-libvpx --enable-libwebp --enable-libx265 --enable-libxml2 --enable-libxvid --enable-libzimg --enable-libzmq --enable-libzvbi --enable-lv2 --enable-omx --enable-openal --enable-opencl --enable-opengl --enable-sand --enable-sdl2 --disable-sndio --enable-libjxl --enable-neon --enable-v4l2-request --enable-libudev --enable-epoxy --libdir=/usr/lib/aarch64-linux-gnu --arch=arm64 --enable-pocketsphinx --enable-librsvg --enable-libdc1394 --enable-libdrm --enable-vout-drm --enable-libiec61883 --enable-chromaprint --enable-frei0r --enable-libx264 --enable-libplacebo --enable-librav1e --enable-shared
Aug 02 03:50:11 raspberrypi python3[220142]:   WARNING: library configuration mismatch
Aug 02 03:50:11 raspberrypi python3[220142]:   avcodec     configuration: --prefix=/usr --extra-version=0+deb12u1+rpt3 --toolchain=hardened --incdir=/usr/include/aarch64-linux-gnu --enable-gpl --disable-stripping --disable-mmal --enable-gnutls --enable-ladspa --enable-libaom --enable-libass --enable-libbluray --enable-libbs2b --enable-libcaca --enable-libcdio --enable-libcodec2 --enable-libdav1d --enable-libflite --enable-libfontconfig --enable-libfreetype --enable-libfribidi --enable-libglslang --enable-libgme --enable-libgsm --enable-libjack --enable-libmp3lame --enable-libmysofa --enable-libopenjpeg --enable-libopenmpt --enable-libopus --enable-libpulse --enable-librabbitmq --enable-librist --enable-librubberband --enable-libshine --enable-libsnappy --enable-libsoxr --enable-libspeex --enable-libsrt --enable-libssh --enable-libsvtav1 --enable-libtheora --enable-libtwolame --enable-libvidstab --enable-libvorbis --enable-libvpx --enable-libwebp --enable-libx265 --enable-libxml2 --enable-libxvid --enable-libzimg --enable-libzmq --enable-libzvbi --enable-lv2 --enable-omx --enable-openal --enable-opencl --enable-opengl --enable-sand --enable-sdl2 --disable-sndio --enable-libjxl --enable-neon --enable-v4l2-request --enable-libudev --enable-epoxy --libdir=/usr/lib/aarch64-linux-gnu --arch=arm64 --enable-pocketsphinx --enable-librsvg --enable-libdc1394 --enable-libdrm --enable-vout-drm --enable-libiec61883 --enable-chromaprint --enable-frei0r --enable-libx264 --enable-libplacebo --enable-librav1e --enable-shared --enable-version3 --disable-doc --disable-programs --enable-libaribb24 --enable-libopencore_amrnb --enable-libopencore_amrwb --enable-libtesseract --enable-libvo_amrwbenc --enable-libsmbclient
Aug 02 03:50:11 raspberrypi python3[220142]:   libavutil      57. 28.100 / 57. 28.100
Aug 02 03:50:11 raspberrypi python3[220142]:   libavcodec     59. 37.100 / 59. 37.100
Aug 02 03:50:11 raspberrypi python3[220142]:   libavformat    59. 27.100 / 59. 27.100
Aug 02 03:50:11 raspberrypi python3[220142]:   libavdevice    59.  7.100 / 59.  7.100
Aug 02 03:50:11 raspberrypi python3[220142]:   libavfilter     8. 44.100 /  8. 44.100
Aug 02 03:50:11 raspberrypi python3[220142]:   libswscale      6.  7.100 /  6.  7.100
Aug 02 03:50:11 raspberrypi python3[220142]:   libswresample   4.  7.100 /  4.  7.100
Aug 02 03:50:11 raspberrypi python3[220142]:   libpostproc    56.  6.100 / 56.  6.100
Aug 02 03:50:11 raspberrypi python3[220142]: Input #0, h264, from '/opt/ezrec-backend/recordings/2025-08-02/034900-035000_65aa2e2a-e463-424d-b88f-0724bb0bea3a_d217e751-dfa5-5276-abbb-da5ad6c2626a_left.mp4':
Aug 02 03:50:11 raspberrypi python3[220142]:   Duration: N/A, bitrate: N/A
Aug 02 03:50:11 raspberrypi python3[220142]:   Stream #0:0: Video: h264 (Constrained Baseline), yuv420p(progressive), 1920x1080, 30 fps, 30 tbr, 1200k tbn
Aug 02 03:50:11 raspberrypi python3[220142]: Input #1, h264, from '/opt/ezrec-backend/recordings/2025-08-02/034900-035000_65aa2e2a-e463-424d-b88f-0724bb0bea3a_d217e751-dfa5-5276-abbb-da5ad6c2626a_right.mp4':
Aug 02 03:50:11 raspberrypi python3[220142]:   Duration: N/A, bitrate: N/A
Aug 02 03:50:11 raspberrypi python3[220142]:   Stream #1:0: Video: h264 (Constrained Baseline), yuv420p(progressive), 1920x1080, 30 fps, 30 tbr, 1200k tbn
Aug 02 03:50:11 raspberrypi python3[220142]: Stream mapping:
Aug 02 03:50:11 raspberrypi python3[220142]:   Stream #0:0 (h264) -> crop:default
Aug 02 03:50:11 raspberrypi python3[220142]:   Stream #0:0 (h264) -> crop:default
Aug 02 03:50:11 raspberrypi python3[220142]:   Stream #1:0 (h264) -> crop:default
Aug 02 03:50:11 raspberrypi python3[220142]:   Stream #1:0 (h264) -> crop:default
Aug 02 03:50:11 raspberrypi python3[220142]:   format:default -> Stream #0:0 (libx264)
Aug 02 03:50:11 raspberrypi python3[220142]: Press [q] to stop, [?] for help
Aug 02 03:50:11 raspberrypi python3[220142]: [Parsed_blend_4 @ 0x55564b58d260] [Eval @ 0x7fffcc030b40] Undefined constant or missing '(' in 'x/w)'
Aug 02 03:50:11 raspberrypi python3[220142]: [Parsed_blend_4 @ 0x55564b58d260] Failed to configure output pad on Parsed_blend_4
Aug 02 03:50:11 raspberrypi python3[220142]: Error reinitializing filters!
Aug 02 03:50:11 raspberrypi python3[220142]: Failed to inject frame into filter network: Invalid argument
Aug 02 03:50:11 raspberrypi python3[220142]: Error while processing the decoded data for stream #1:0
Aug 02 03:50:11 raspberrypi python3[220142]: Conversion failed!
Aug 02 03:50:11 raspberrypi python3[220142]: ERROR: 🔧 FFmpeg stderr:
Aug 02 03:50:11 raspberrypi python3[220142]: ffmpeg version 5.1.6-0+deb12u1+rpt3 Copyright (c) 2000-2024 the FFmpeg developers
Aug 02 03:50:11 raspberrypi python3[220142]:   built with gcc 12 (Debian 12.2.0-14)
Aug 02 03:50:11 raspberrypi python3[220142]:   configuration: --prefix=/usr --extra-version=0+deb12u1+rpt3 --toolchain=hardened --incdir=/usr/include/aarch64-linux-gnu --enable-gpl --disable-stripping --disable-mmal --enable-gnutls --enable-ladspa --enable-libaom --enable-libass --enable-libbluray --enable-libbs2b --enable-libcaca --enable-libcdio --enable-libcodec2 --enable-libdav1d --enable-libflite --enable-libfontconfig --enable-libfreetype --enable-libfribidi --enable-libglslang --enable-libgme --enable-libgsm --enable-libjack --enable-libmp3lame --enable-libmysofa --enable-libopenjpeg --enable-libopenmpt --enable-libopus --enable-libpulse --enable-librabbitmq --enable-librist --enable-librubberband --enable-libshine --enable-libsnappy --enable-libsoxr --enable-libspeex --enable-libsrt --enable-libssh --enable-libsvtav1 --enable-libtheora --enable-libtwolame --enable-libvidstab --enable-libvorbis --enable-libvpx --enable-libwebp --enable-libx265 --enable-libxml2 --enable-libxvid --enable-libzimg --enable-libzmq --enable-libzvbi --enable-lv2 --enable-omx --enable-openal --enable-opencl --enable-opengl --enable-sand --enable-sdl2 --disable-sndio --enable-libjxl --enable-neon --enable-v4l2-request --enable-libudev --enable-epoxy --libdir=/usr/lib/aarch64-linux-gnu --arch=arm64 --enable-pocketsphinx --enable-librsvg --enable-libdc1394 --enable-libdrm --enable-vout-drm --enable-libiec61883 --enable-chromaprint --enable-frei0r --enable-libx264 --enable-libplacebo --enable-librav1e --enable-shared
Aug 02 03:50:11 raspberrypi python3[220142]:   WARNING: library configuration mismatch
Aug 02 03:50:11 raspberrypi python3[220142]:   avcodec     configuration: --prefix=/usr --extra-version=0+deb12u1+rpt3 --toolchain=hardened --incdir=/usr/include/aarch64-linux-gnu --enable-gpl --disable-stripping --disable-mmal --enable-gnutls --enable-ladspa --enable-libaom --enable-libass --enable-libbluray --enable-libbs2b --enable-libcaca --enable-libcdio --enable-libcodec2 --enable-libdav1d --enable-libflite --enable-libfontconfig --enable-libfreetype --enable-libfribidi --enable-libglslang --enable-libgme --enable-libgsm --enable-libjack --enable-libmp3lame --enable-libmysofa --enable-libopenjpeg --enable-libopenmpt --enable-libopus --enable-libpulse --enable-librabbitmq --enable-librist --enable-librubberband --enable-libshine --enable-libsnappy --enable-libsoxr --enable-libspeex --enable-libsrt --enable-libssh --enable-libsvtav1 --enable-libtheora --enable-libtwolame --enable-libvidstab --enable-libvorbis --enable-libvpx --enable-libwebp --enable-libx265 --enable-libxml2 --enable-libxvid --enable-libzimg --enable-libzmq --enable-libzvbi --enable-lv2 --enable-omx --enable-openal --enable-opencl --enable-opengl --enable-sand --enable-sdl2 --disable-sndio --enable-libjxl --enable-neon --enable-v4l2-request --enable-libudev --enable-epoxy --libdir=/usr/lib/aarch64-linux-gnu --arch=arm64 --enable-pocketsphinx --enable-librsvg --enable-libdc1394 --enable-libdrm --enable-vout-drm --enable-libiec61883 --enable-chromaprint --enable-frei0r --enable-libx264 --enable-libplacebo --enable-librav1e --enable-shared --enable-version3 --disable-doc --disable-programs --enable-libaribb24 --enable-libopencore_amrnb --enable-libopencore_amrwb --enable-libtesseract --enable-libvo_amrwbenc --enable-libsmbclient
Aug 02 03:50:11 raspberrypi python3[220142]:   libavutil      57. 28.100 / 57. 28.100
Aug 02 03:50:11 raspberrypi python3[220142]:   libavcodec     59. 37.100 / 59. 37.100
Aug 02 03:50:11 raspberrypi python3[220142]:   libavformat    59. 27.100 / 59. 27.100
Aug 02 03:50:11 raspberrypi python3[220142]:   libavdevice    59.  7.100 / 59.  7.100
Aug 02 03:50:11 raspberrypi python3[220142]:   libavfilter     8. 44.100 /  8. 44.100
Aug 02 03:50:11 raspberrypi python3[220142]:   libswscale      6.  7.100 /  6.  7.100
Aug 02 03:50:11 raspberrypi python3[220142]:   libswresample   4.  7.100 /  4.  7.100
Aug 02 03:50:11 raspberrypi python3[220142]:   libpostproc    56.  6.100 / 56.  6.100
Aug 02 03:50:11 raspberrypi python3[220142]: Input #0, h264, from '/opt/ezrec-backend/recordings/2025-08-02/034900-035000_65aa2e2a-e463-424d-b88f-0724bb0bea3a_d217e751-dfa5-5276-abbb-da5ad6c2626a_left.mp4':
Aug 02 03:50:11 raspberrypi python3[220142]:   Duration: N/A, bitrate: N/A
Aug 02 03:50:11 raspberrypi python3[220142]:   Stream #0:0: Video: h264 (Constrained Baseline), yuv420p(progressive), 1920x1080, 30 fps, 30 tbr, 1200k tbn
Aug 02 03:50:11 raspberrypi python3[220142]: Input #1, h264, from '/opt/ezrec-backend/recordings/2025-08-02/034900-035000_65aa2e2a-e463-424d-b88f-0724bb0bea3a_d217e751-dfa5-5276-abbb-da5ad6c2626a_right.mp4':
Aug 02 03:50:11 raspberrypi python3[220142]:   Duration: N/A, bitrate: N/A
Aug 02 03:50:11 raspberrypi python3[220142]:   Stream #1:0: Video: h264 (Constrained Baseline), yuv420p(progressive), 1920x1080, 30 fps, 30 tbr, 1200k tbn
Aug 02 03:50:11 raspberrypi python3[220142]: Stream mapping:
Aug 02 03:50:11 raspberrypi python3[220142]:   Stream #0:0 (h264) -> crop:default
Aug 02 03:50:11 raspberrypi python3[220142]:   Stream #0:0 (h264) -> crop:default
Aug 02 03:50:11 raspberrypi python3[220142]:   Stream #1:0 (h264) -> crop:default
Aug 02 03:50:11 raspberrypi python3[220142]:   Stream #1:0 (h264) -> crop:default
Aug 02 03:50:11 raspberrypi python3[220142]:   format:default -> Stream #0:0 (libx264)
Aug 02 03:50:11 raspberrypi python3[220142]: Press [q] to stop, [?] for help
Aug 02 03:50:11 raspberrypi python3[220142]: [Parsed_blend_4 @ 0x55564b58d260] [Eval @ 0x7fffcc030b40] Undefined constant or missing '(' in 'x/w)'
Aug 02 03:50:11 raspberrypi python3[220142]: [Parsed_blend_4 @ 0x55564b58d260] Failed to configure output pad on Parsed_blend_4
Aug 02 03:50:11 raspberrypi python3[220142]: Error reinitializing filters!
Aug 02 03:50:11 raspberrypi python3[220142]: Failed to inject frame into filter network: Invalid argument
Aug 02 03:50:11 raspberrypi python3[220142]: Error while processing the decoded data for stream #1:0
Aug 02 03:50:11 raspberrypi python3[220142]: Conversion failed!
Aug 02 03:50:11 raspberrypi python3[220142]: 2025-08-02 03:50:11,815 - ERROR - 🔧 FFmpeg stdout:
Aug 02 03:50:11 raspberrypi python3[220142]: ERROR: 🔧 FFmpeg stdout:
Aug 02 03:50:11 raspberrypi python3[220142]: 2025-08-02 03:50:11,815 - INFO - ⏳ Waiting 2s before retry...
Aug 02 03:50:13 raspberrypi python3[220142]: 2025-08-02 03:50:13,815 - INFO - 🎬 Starting merge attempt 3/3
Aug 02 03:50:13 raspberrypi python3[220142]: 2025-08-02 03:50:13,816 - INFO - 📹 Input 1: 034900-035000_65aa2e2a-e463-424d-b88f-0724bb0bea3a_d217e751-dfa5-5276-abbb-da5ad6c2626a_left.mp4 (44,966,210 bytes)
Aug 02 03:50:13 raspberrypi python3[220142]: 2025-08-02 03:50:13,816 - INFO - 📹 Input 2: 034900-035000_65aa2e2a-e463-424d-b88f-0724bb0bea3a_d217e751-dfa5-5276-abbb-da5ad6c2626a_right.mp4 (45,901,862 bytes)
Aug 02 03:50:13 raspberrypi python3[220142]: 2025-08-02 03:50:13,816 - INFO - 🎯 Output: /opt/ezrec-backend/recordings/2025-08-02/034900-035000_65aa2e2a-e463-424d-b88f-0724bb0bea3a_d217e751-dfa5-5276-abbb-da5ad6c2626a_merged.mp4
Aug 02 03:50:13 raspberrypi python3[220142]: 2025-08-02 03:50:13,816 - INFO - 🔧 Method: side_by_side
Aug 02 03:50:14 raspberrypi python3[220142]: 2025-08-02 03:50:14,220 - INFO - 🎨 Using feathered blend merge:
Aug 02 03:50:14 raspberrypi python3[220142]: 2025-08-02 03:50:14,220 - INFO -    - Feather width: 100px
Aug 02 03:50:14 raspberrypi python3[220142]: 2025-08-02 03:50:14,221 - INFO -    - Edge trim: 5px
Aug 02 03:50:14 raspberrypi python3[220142]: 2025-08-02 03:50:14,221 - INFO -    - Method: side_by_side
Aug 02 03:50:14 raspberrypi python3[220142]: 2025-08-02 03:50:14,221 - INFO -    - Output dimensions: 1920x1080
Aug 02 03:50:14 raspberrypi python3[220142]: 2025-08-02 03:50:14,515 - ERROR - ❌ FFmpeg failed on attempt 3
Aug 02 03:50:14 raspberrypi python3[220142]: ERROR: ❌ FFmpeg failed on attempt 3
Aug 02 03:50:14 raspberrypi python3[220142]: 2025-08-02 03:50:14,516 - ERROR - 🔧 FFmpeg stderr:
Aug 02 03:50:14 raspberrypi python3[220142]: ffmpeg version 5.1.6-0+deb12u1+rpt3 Copyright (c) 2000-2024 the FFmpeg developers
Aug 02 03:50:14 raspberrypi python3[220142]:   built with gcc 12 (Debian 12.2.0-14)
Aug 02 03:50:14 raspberrypi python3[220142]:   configuration: --prefix=/usr --extra-version=0+deb12u1+rpt3 --toolchain=hardened --incdir=/usr/include/aarch64-linux-gnu --enable-gpl --disable-stripping --disable-mmal --enable-gnutls --enable-ladspa --enable-libaom --enable-libass --enable-libbluray --enable-libbs2b --enable-libcaca --enable-libcdio --enable-libcodec2 --enable-libdav1d --enable-libflite --enable-libfontconfig --enable-libfreetype --enable-libfribidi --enable-libglslang --enable-libgme --enable-libgsm --enable-libjack --enable-libmp3lame --enable-libmysofa --enable-libopenjpeg --enable-libopenmpt --enable-libopus --enable-libpulse --enable-librabbitmq --enable-librist --enable-librubberband --enable-libshine --enable-libsnappy --enable-libsoxr --enable-libspeex --enable-libsrt --enable-libssh --enable-libsvtav1 --enable-libtheora --enable-libtwolame --enable-libvidstab --enable-libvorbis --enable-libvpx --enable-libwebp --enable-libx265 --enable-libxml2 --enable-libxvid --enable-libzimg --enable-libzmq --enable-libzvbi --enable-lv2 --enable-omx --enable-openal --enable-opencl --enable-opengl --enable-sand --enable-sdl2 --disable-sndio --enable-libjxl --enable-neon --enable-v4l2-request --enable-libudev --enable-epoxy --libdir=/usr/lib/aarch64-linux-gnu --arch=arm64 --enable-pocketsphinx --enable-librsvg --enable-libdc1394 --enable-libdrm --enable-vout-drm --enable-libiec61883 --enable-chromaprint --enable-frei0r --enable-libx264 --enable-libplacebo --enable-librav1e --enable-shared
Aug 02 03:50:14 raspberrypi python3[220142]:   WARNING: library configuration mismatch
Aug 02 03:50:14 raspberrypi python3[220142]:   avcodec     configuration: --prefix=/usr --extra-version=0+deb12u1+rpt3 --toolchain=hardened --incdir=/usr/include/aarch64-linux-gnu --enable-gpl --disable-stripping --disable-mmal --enable-gnutls --enable-ladspa --enable-libaom --enable-libass --enable-libbluray --enable-libbs2b --enable-libcaca --enable-libcdio --enable-libcodec2 --enable-libdav1d --enable-libflite --enable-libfontconfig --enable-libfreetype --enable-libfribidi --enable-libglslang --enable-libgme --enable-libgsm --enable-libjack --enable-libmp3lame --enable-libmysofa --enable-libopenjpeg --enable-libopenmpt --enable-libopus --enable-libpulse --enable-librabbitmq --enable-librist --enable-librubberband --enable-libshine --enable-libsnappy --enable-libsoxr --enable-libspeex --enable-libsrt --enable-libssh --enable-libsvtav1 --enable-libtheora --enable-libtwolame --enable-libvidstab --enable-libvorbis --enable-libvpx --enable-libwebp --enable-libx265 --enable-libxml2 --enable-libxvid --enable-libzimg --enable-libzmq --enable-libzvbi --enable-lv2 --enable-omx --enable-openal --enable-opencl --enable-opengl --enable-sand --enable-sdl2 --disable-sndio --enable-libjxl --enable-neon --enable-v4l2-request --enable-libudev --enable-epoxy --libdir=/usr/lib/aarch64-linux-gnu --arch=arm64 --enable-pocketsphinx --enable-librsvg --enable-libdc1394 --enable-libdrm --enable-vout-drm --enable-libiec61883 --enable-chromaprint --enable-frei0r --enable-libx264 --enable-libplacebo --enable-librav1e --enable-shared --enable-version3 --disable-doc --disable-programs --enable-libaribb24 --enable-libopencore_amrnb --enable-libopencore_amrwb --enable-libtesseract --enable-libvo_amrwbenc --enable-libsmbclient
Aug 02 03:50:14 raspberrypi python3[220142]:   libavutil      57. 28.100 / 57. 28.100
Aug 02 03:50:14 raspberrypi python3[220142]:   libavcodec     59. 37.100 / 59. 37.100
Aug 02 03:50:14 raspberrypi python3[220142]:   libavformat    59. 27.100 / 59. 27.100
Aug 02 03:50:14 raspberrypi python3[220142]:   libavdevice    59.  7.100 / 59.  7.100
Aug 02 03:50:14 raspberrypi python3[220142]:   libavfilter     8. 44.100 /  8. 44.100
Aug 02 03:50:14 raspberrypi python3[220142]:   libswscale      6.  7.100 /  6.  7.100
Aug 02 03:50:14 raspberrypi python3[220142]:   libswresample   4.  7.100 /  4.  7.100
Aug 02 03:50:14 raspberrypi python3[220142]:   libpostproc    56.  6.100 / 56.  6.100
Aug 02 03:50:14 raspberrypi python3[220142]: Input #0, h264, from '/opt/ezrec-backend/recordings/2025-08-02/034900-035000_65aa2e2a-e463-424d-b88f-0724bb0bea3a_d217e751-dfa5-5276-abbb-da5ad6c2626a_left.mp4':
Aug 02 03:50:14 raspberrypi python3[220142]:   Duration: N/A, bitrate: N/A
Aug 02 03:50:14 raspberrypi python3[220142]:   Stream #0:0: Video: h264 (Constrained Baseline), yuv420p(progressive), 1920x1080, 30 fps, 30 tbr, 1200k tbn
Aug 02 03:50:14 raspberrypi python3[220142]: Input #1, h264, from '/opt/ezrec-backend/recordings/2025-08-02/034900-035000_65aa2e2a-e463-424d-b88f-0724bb0bea3a_d217e751-dfa5-5276-abbb-da5ad6c2626a_right.mp4':
Aug 02 03:50:14 raspberrypi python3[220142]:   Duration: N/A, bitrate: N/A
Aug 02 03:50:14 raspberrypi python3[220142]:   Stream #1:0: Video: h264 (Constrained Baseline), yuv420p(progressive), 1920x1080, 30 fps, 30 tbr, 1200k tbn
Aug 02 03:50:14 raspberrypi python3[220142]: Stream mapping:
Aug 02 03:50:14 raspberrypi python3[220142]:   Stream #0:0 (h264) -> crop:default
Aug 02 03:50:14 raspberrypi python3[220142]:   Stream #0:0 (h264) -> crop:default
Aug 02 03:50:14 raspberrypi python3[220142]:   Stream #1:0 (h264) -> crop:default
Aug 02 03:50:14 raspberrypi python3[220142]:   Stream #1:0 (h264) -> crop:default
Aug 02 03:50:14 raspberrypi python3[220142]:   format:default -> Stream #0:0 (libx264)
Aug 02 03:50:14 raspberrypi python3[220142]: Press [q] to stop, [?] for help
Aug 02 03:50:14 raspberrypi python3[220142]: [Parsed_blend_4 @ 0x5556754ad310] [Eval @ 0x7fffe6892980] Undefined constant or missing '(' in 'x/w)'
Aug 02 03:50:14 raspberrypi python3[220142]: [Parsed_blend_4 @ 0x5556754ad310] Failed to configure output pad on Parsed_blend_4
Aug 02 03:50:14 raspberrypi python3[220142]: Error reinitializing filters!
Aug 02 03:50:14 raspberrypi python3[220142]: Failed to inject frame into filter network: Invalid argument
Aug 02 03:50:14 raspberrypi python3[220142]: Error while processing the decoded data for stream #1:0
Aug 02 03:50:14 raspberrypi python3[220142]: Conversion failed!
Aug 02 03:50:14 raspberrypi python3[220142]: ERROR: 🔧 FFmpeg stderr:
Aug 02 03:50:14 raspberrypi python3[220142]: ffmpeg version 5.1.6-0+deb12u1+rpt3 Copyright (c) 2000-2024 the FFmpeg developers
Aug 02 03:50:14 raspberrypi python3[220142]:   built with gcc 12 (Debian 12.2.0-14)
Aug 02 03:50:14 raspberrypi python3[220142]:   configuration: --prefix=/usr --extra-version=0+deb12u1+rpt3 --toolchain=hardened --incdir=/usr/include/aarch64-linux-gnu --enable-gpl --disable-stripping --disable-mmal --enable-gnutls --enable-ladspa --enable-libaom --enable-libass --enable-libbluray --enable-libbs2b --enable-libcaca --enable-libcdio --enable-libcodec2 --enable-libdav1d --enable-libflite --enable-libfontconfig --enable-libfreetype --enable-libfribidi --enable-libglslang --enable-libgme --enable-libgsm --enable-libjack --enable-libmp3lame --enable-libmysofa --enable-libopenjpeg --enable-libopenmpt --enable-libopus --enable-libpulse --enable-librabbitmq --enable-librist --enable-librubberband --enable-libshine --enable-libsnappy --enable-libsoxr --enable-libspeex --enable-libsrt --enable-libssh --enable-libsvtav1 --enable-libtheora --enable-libtwolame --enable-libvidstab --enable-libvorbis --enable-libvpx --enable-libwebp --enable-libx265 --enable-libxml2 --enable-libxvid --enable-libzimg --enable-libzmq --enable-libzvbi --enable-lv2 --enable-omx --enable-openal --enable-opencl --enable-opengl --enable-sand --enable-sdl2 --disable-sndio --enable-libjxl --enable-neon --enable-v4l2-request --enable-libudev --enable-epoxy --libdir=/usr/lib/aarch64-linux-gnu --arch=arm64 --enable-pocketsphinx --enable-librsvg --enable-libdc1394 --enable-libdrm --enable-vout-drm --enable-libiec61883 --enable-chromaprint --enable-frei0r --enable-libx264 --enable-libplacebo --enable-librav1e --enable-shared
Aug 02 03:50:14 raspberrypi python3[220142]:   WARNING: library configuration mismatch
Aug 02 03:50:14 raspberrypi python3[220142]:   avcodec     configuration: --prefix=/usr --extra-version=0+deb12u1+rpt3 --toolchain=hardened --incdir=/usr/include/aarch64-linux-gnu --enable-gpl --disable-stripping --disable-mmal --enable-gnutls --enable-ladspa --enable-libaom --enable-libass --enable-libbluray --enable-libbs2b --enable-libcaca --enable-libcdio --enable-libcodec2 --enable-libdav1d --enable-libflite --enable-libfontconfig --enable-libfreetype --enable-libfribidi --enable-libglslang --enable-libgme --enable-libgsm --enable-libjack --enable-libmp3lame --enable-libmysofa --enable-libopenjpeg --enable-libopenmpt --enable-libopus --enable-libpulse --enable-librabbitmq --enable-librist --enable-librubberband --enable-libshine --enable-libsnappy --enable-libsoxr --enable-libspeex --enable-libsrt --enable-libssh --enable-libsvtav1 --enable-libtheora --enable-libtwolame --enable-libvidstab --enable-libvorbis --enable-libvpx --enable-libwebp --enable-libx265 --enable-libxml2 --enable-libxvid --enable-libzimg --enable-libzmq --enable-libzvbi --enable-lv2 --enable-omx --enable-openal --enable-opencl --enable-opengl --enable-sand --enable-sdl2 --disable-sndio --enable-libjxl --enable-neon --enable-v4l2-request --enable-libudev --enable-epoxy --libdir=/usr/lib/aarch64-linux-gnu --arch=arm64 --enable-pocketsphinx --enable-librsvg --enable-libdc1394 --enable-libdrm --enable-vout-drm --enable-libiec61883 --enable-chromaprint --enable-frei0r --enable-libx264 --enable-libplacebo --enable-librav1e --enable-shared --enable-version3 --disable-doc --disable-programs --enable-libaribb24 --enable-libopencore_amrnb --enable-libopencore_amrwb --enable-libtesseract --enable-libvo_amrwbenc --enable-libsmbclient
Aug 02 03:50:14 raspberrypi python3[220142]:   libavutil      57. 28.100 / 57. 28.100
Aug 02 03:50:14 raspberrypi python3[220142]:   libavcodec     59. 37.100 / 59. 37.100
Aug 02 03:50:14 raspberrypi python3[220142]:   libavformat    59. 27.100 / 59. 27.100
Aug 02 03:50:14 raspberrypi python3[220142]:   libavdevice    59.  7.100 / 59.  7.100
Aug 02 03:50:14 raspberrypi python3[220142]:   libavfilter     8. 44.100 /  8. 44.100
Aug 02 03:50:14 raspberrypi python3[220142]:   libswscale      6.  7.100 /  6.  7.100
Aug 02 03:50:14 raspberrypi python3[220142]:   libswresample   4.  7.100 /  4.  7.100
Aug 02 03:50:14 raspberrypi python3[220142]:   libpostproc    56.  6.100 / 56.  6.100
Aug 02 03:50:14 raspberrypi python3[220142]: Input #0, h264, from '/opt/ezrec-backend/recordings/2025-08-02/034900-035000_65aa2e2a-e463-424d-b88f-0724bb0bea3a_d217e751-dfa5-5276-abbb-da5ad6c2626a_left.mp4':
Aug 02 03:50:14 raspberrypi python3[220142]:   Duration: N/A, bitrate: N/A
Aug 02 03:50:14 raspberrypi python3[220142]:   Stream #0:0: Video: h264 (Constrained Baseline), yuv420p(progressive), 1920x1080, 30 fps, 30 tbr, 1200k tbn
Aug 02 03:50:14 raspberrypi python3[220142]: Input #1, h264, from '/opt/ezrec-backend/recordings/2025-08-02/034900-035000_65aa2e2a-e463-424d-b88f-0724bb0bea3a_d217e751-dfa5-5276-abbb-da5ad6c2626a_right.mp4':
Aug 02 03:50:14 raspberrypi python3[220142]:   Duration: N/A, bitrate: N/A
Aug 02 03:50:14 raspberrypi python3[220142]:   Stream #1:0: Video: h264 (Constrained Baseline), yuv420p(progressive), 1920x1080, 30 fps, 30 tbr, 1200k tbn
Aug 02 03:50:14 raspberrypi python3[220142]: Stream mapping:
Aug 02 03:50:14 raspberrypi python3[220142]:   Stream #0:0 (h264) -> crop:default
Aug 02 03:50:14 raspberrypi python3[220142]:   Stream #0:0 (h264) -> crop:default
Aug 02 03:50:14 raspberrypi python3[220142]:   Stream #1:0 (h264) -> crop:default
Aug 02 03:50:14 raspberrypi python3[220142]:   Stream #1:0 (h264) -> crop:default
Aug 02 03:50:14 raspberrypi python3[220142]:   format:default -> Stream #0:0 (libx264)
Aug 02 03:50:14 raspberrypi python3[220142]: Press [q] to stop, [?] for help
Aug 02 03:50:14 raspberrypi python3[220142]: [Parsed_blend_4 @ 0x5556754ad310] [Eval @ 0x7fffe6892980] Undefined constant or missing '(' in 'x/w)'
Aug 02 03:50:14 raspberrypi python3[220142]: [Parsed_blend_4 @ 0x5556754ad310] Failed to configure output pad on Parsed_blend_4
Aug 02 03:50:14 raspberrypi python3[220142]: Error reinitializing filters!
Aug 02 03:50:14 raspberrypi python3[220142]: Failed to inject frame into filter network: Invalid argument
Aug 02 03:50:14 raspberrypi python3[220142]: Error while processing the decoded data for stream #1:0
Aug 02 03:50:14 raspberrypi python3[220142]: Conversion failed!
Aug 02 03:50:14 raspberrypi python3[220142]: 2025-08-02 03:50:14,517 - ERROR - 🔧 FFmpeg stdout:
Aug 02 03:50:14 raspberrypi python3[220142]: ERROR: 🔧 FFmpeg stdout:
Aug 02 03:50:14 raspberrypi python3[220142]: 2025-08-02 03:50:14,517 - ERROR - ❌ All merge attempts failed after 3 retries
Aug 02 03:50:14 raspberrypi python3[220142]: ERROR: ❌ All merge attempts failed after 3 retries
Aug 02 03:50:14 raspberrypi python3[220142]: 2025-08-02 03:50:14,517 - ERROR - ❌ Enhanced merge failed: FFmpeg failed (exit code: 1)
Aug 02 03:50:14 raspberrypi python3[220142]: ERROR: ❌ Enhanced merge failed: FFmpeg failed (exit code: 1)
Aug 02 03:50:14 raspberrypi python3[220142]: 2025-08-02 03:50:14,517 - ERROR - ❌ Failed to merge videos
Aug 02 03:50:14 raspberrypi python3[220142]: ERROR: ❌ Failed to merge videos
Aug 02 03:50:14 raspberrypi python3[220142]: 2025-08-02 03:50:14,517 - ERROR - 🔧 Created .error marker due to merge failure
Aug 02 03:50:14 raspberrypi python3[220142]: ERROR: 🔧 Created .error marker due to merge failure
Aug 02 03:50:14 raspberrypi python3[220142]: 2025-08-02 03:50:14,788 - INFO - HTTP Request: PATCH https://iszmsaayxpdrovealrrp.supabase.co/rest/v1/bookings?id=eq.74b61d39-934a-41c3-a219-e65ddcb5a616 "HTTP/1.1 200 OK"
Aug 02 03:50:15 raspberrypi python3[220142]: 2025-08-02 03:50:15,056 - INFO - HTTP Request: PATCH https://iszmsaayxpdrovealrrp.supabase.co/rest/v1/cameras?id=eq.d217e751-dfa5-5276-abbb-da5ad6c2626a "HTTP/1.1 200 OK"
Aug 02 03:50:20 raspberrypi python3[220142]: 2025-08-02 03:50:20,058 - INFO - 📋 Loaded 1 bookings from cache
Aug 02 03:50:20 raspberrypi python3[220142]: 2025-08-02 03:50:20,058 - INFO - 🔍 Checking 1 bookings at 2025-08-02 03:50:20 EDT
Aug 02 03:50:20 raspberrypi python3[220142]: 2025-08-02 03:50:20,058 - INFO - 🔍 Looking for user_id: 65aa2e2a-e463-424d-b88f-0724bb0bea3a, camera_id: d217e751-dfa5-5276-abbb-da5ad6c2626a
Aug 02 03:50:20 raspberrypi python3[220142]: 2025-08-02 03:50:20,059 - INFO - 🔍 Booking 0: 74b61d39-934a-41c3-a219-e65ddcb5a616
Aug 02 03:50:20 raspberrypi python3[220142]: 2025-08-02 03:50:20,059 - INFO -    User ID: 65aa2e2a-e463-424d-b88f-0724bb0bea3a (expected: 65aa2e2a-e463-424d-b88f-0724bb0bea3a)